# xmcd
#
# Track frame offsets:
#       150
#       12746
#       23588
#       34571
#       42738
#       52371
#       63906
#       71806
#       83311
#       92583
#
# Disc length: 1378 seconds
#
# Revision: 2
# Processed by: cddbd v1.5.2PL0 Copyright (c) Steve Scherf et al.
# Submitted via: WhereIsIt 3.95
#
DISCID=8005600a
DTITLE=Brook Benton - Frankie And Johnny
DYEAR=1900
DGENRE=
TTITLE0=The Boll Weevil Song
TTITLE1=Frankie And Johnny
TTITLE2=The Ties That Bind
TTITLE3=You're For Me
TTITLE4=Ninety Nine Percent
TTITLE5=Nothing In The World
TTITLE6=Doggone Baby Doggone
TTITLE7=Ain't It Good
TTITLE8=Shadrock
TTITLE9=Revenge
EXTD=
EXTT0=
EXTT1=
EXTT2=
EXTT3=
EXTT4=
EXTT5=
EXTT6=
EXTT7=
EXTT8=
EXTT9=
PLAYORDER=
